<svg xmlns="http://www.w3.org/2000/svg" width="184" height="44" viewBox="0 0 184 44" fill="none" role="img" aria-labelledby="vortex-logo-title">
  <title id="vortex-logo-title">VORTEX</title>
  <path d="M26.6 8.25c6.34 0 11.48 3.06 11.48 6.84s-5.14 6.84-11.48 6.84-11.48-3.06-11.48-6.84 5.14-6.84 11.48-6.84Z" stroke="#2563eb" stroke-width="2.25"/>
  <path d="M26.6 15.11c8.37 0 15.15 4.05 15.15 9.04s-6.78 9.04-15.15 9.04-15.15-4.05-15.15-9.04 6.78-9.04 15.15-9.04Z" stroke="#0f172a" stroke-width="2.25"/>
  <path d="M8.25 15.58 20.74 37.5h11.71l12.5-21.92" stroke="#0f172a" stroke-width="3.6" stroke-linecap="round" stroke-linejoin="round"/>
  <path d="M26.6 5.6v31.8" stroke="#2563eb" stroke-width="2.25" stroke-linecap="round"/>
  <circle cx="26.6" cy="15.1" r="3.35" fill="#2563eb"/>
  <circle cx="13.88" cy="24.15" r="2.35" fill="#0f172a"/>
  <circle cx="39.32" cy="24.15" r="2.35" fill="#0f172a"/>
  <text x="57" y="29.5" fill="#0f172a" font-family="Inter, ui-sans-serif, system-ui, -apple-system, BlinkMacSystemFont, Segoe UI, sans-serif" font-size="22" font-weight="800" letter-spacing="2.6">VORTEX</text>
</svg>
